<svg width="340" height="57" viewBox="0 0 340 57" xmlns="http://www.w3.org/2000/svg">
  <path d="M12.292 43.565h7.157c8.48 0 15.403-4.9 15.403-15.948 0-11.047-6.924-16.026-15.403-16.026h-7.157v31.974zm7.624 11.592H0V0h19.993c16.57 0 27.695 10.58 27.695 27.617s-11.124 27.54-27.772 27.54zm41.88-23.961h15.48c-.155-2.956-2.178-6.535-7.78-6.535-4.978 0-7.468 3.656-7.7 6.535zM78.131 41.23l9.88 2.8c-1.867 6.691-8.013 12.293-17.815 12.293-10.658 0-20.149-7.624-20.149-20.616 0-12.447 9.258-20.382 19.293-20.382 11.98 0 19.371 7.39 19.371 19.837 0 1.634-.155 3.423-.233 3.657H61.562c.233 4.356 4.2 7.468 8.79 7.468 4.28 0 6.69-2.023 7.78-5.057zm52.226-24.738l-14.703 38.664h-11.902l-15.87-38.664h12.836l8.946 24.038 8.246-24.038h12.447zm15.819 27.072h7.157c8.48 0 15.403-4.9 15.403-15.948 0-11.047-6.924-16.026-15.403-16.026h-7.157v31.974zm7.624 11.592h-19.916V0h19.993c16.57 0 27.695 10.58 27.695 27.617s-11.124 27.54-27.772 27.54zm50.67-9.725c4.512 0 8.713-3.112 8.713-9.646 0-6.535-4.2-9.57-8.713-9.57-4.434 0-8.713 3.035-8.713 9.57 0 6.457 4.279 9.646 8.713 9.646zm0-30.106c11.591 0 20.538 8.48 20.538 20.46s-8.947 20.538-20.538 20.538c-11.514 0-20.538-8.558-20.538-20.538s9.024-20.46 20.538-20.46zm36.745 17.66c0-3.89 2.49-6.77 6.38-6.77 4.278 0 6.3 2.88 6.3 6.691v22.25h11.826V30.885c0-8.48-4.357-15.404-14.081-15.404-3.968 0-8.713 1.79-10.814 5.446v-4.434H229.39v38.664h11.825V32.985zm48.96 12.446c4.511 0 8.712-3.112 8.712-9.646 0-6.535-4.2-9.57-8.713-9.57-4.434 0-8.713 3.035-8.713 9.57 0 6.457 4.279 9.646 8.713 9.646zm0-30.106c11.59 0 20.537 8.48 20.537 20.46s-8.946 20.538-20.538 20.538c-11.514 0-20.538-8.558-20.538-20.538s9.024-20.46 20.538-20.46zm49.503 1.167c-.778-.234-1.945-.39-3.112-.39-3.112 0-8.013 1.245-10.036 5.602v-5.212h-11.436v38.664h11.825V38.275c0-7.702 4.279-10.502 9.024-10.502 1.167 0 2.412.078 3.735.389v-11.67z" fill="#1D75FD" fill-rule="evenodd"/>
</svg>
