<svg width="256" height="256" viewBox="0 0 256 256" xmlns="http://www.w3.org/2000/svg" xmlns:xlink="http://www.w3.org/1999/xlink"><defs><path id="a" d="M0 0h256v256H0z"/></defs><g fill="none" fill-rule="evenodd"><use fill="#499AFF" xlink:href="#a"/><path stroke="#979797" d="M.5.5h255v255H.5z"/><path d="M55.304 113.344h7.488c1.813 0 3.536.203 5.168.608 1.632.405 3.056 1.06 4.272 1.968 1.216.907 2.18 2.085 2.896 3.536.715 1.45 1.072 3.21 1.072 5.28 0 1.835-.347 3.45-1.04 4.848-.693 1.397-1.627 2.57-2.8 3.52-1.173.95-2.528 1.67-4.064 2.16-1.536.49-3.147.736-4.832.736h-8.16v-22.656zm4.992 18.048h2.592c1.152 0 2.224-.117 3.216-.352s1.85-.624 2.576-1.168c.725-.544 1.296-1.26 1.712-2.144.416-.885.624-1.968.624-3.248 0-1.11-.208-2.075-.624-2.896-.416-.82-.976-1.5-1.68-2.032-.704-.533-1.53-.933-2.48-1.2-.95-.267-1.947-.4-2.992-.4h-2.944v13.44zm31.908 1.92c-.768.98-1.74 1.74-2.912 2.272-1.173.533-2.39.8-3.648.8-1.195 0-2.32-.192-3.376-.576-1.056-.384-1.973-.933-2.752-1.648-.78-.715-1.392-1.573-1.84-2.576-.448-1.003-.672-2.123-.672-3.36 0-1.237.224-2.357.672-3.36.448-1.003 1.06-1.86 1.84-2.576.78-.715 1.696-1.264 2.752-1.648 1.056-.384 2.18-.576 3.376-.576 1.11 0 2.117.192 3.024.576.907.384 1.675.933 2.304 1.648.63.715 1.115 1.573 1.456 2.576.34 1.003.512 2.123.512 3.36v1.504H81.804c.192.917.608 1.648 1.248 2.192.64.544 1.43.816 2.368.816.79 0 1.456-.176 2-.528.544-.352 1.02-.805 1.424-1.36l3.36 2.464zm-4.064-6.848c.02-.81-.245-1.504-.8-2.08-.555-.576-1.27-.864-2.144-.864-.533 0-1.003.085-1.408.256-.405.17-.752.39-1.04.656-.288.267-.512.576-.672.928-.16.352-.25.72-.272 1.104h6.336zm4.58-6.016h5.184l3.936 10.56h.064l3.648-10.56h4.832L104.24 136h-5.088l-6.432-15.552zm22.36-7.104h7.488c1.813 0 3.536.203 5.168.608 1.632.405 3.056 1.06 4.272 1.968 1.216.907 2.18 2.085 2.896 3.536.715 1.45 1.072 3.21 1.072 5.28 0 1.835-.347 3.45-1.04 4.848-.693 1.397-1.627 2.57-2.8 3.52-1.173.95-2.528 1.67-4.064 2.16-1.536.49-3.147.736-4.832.736h-8.16v-22.656zm4.992 18.048h2.592c1.152 0 2.224-.117 3.216-.352s1.85-.624 2.576-1.168c.725-.544 1.296-1.26 1.712-2.144.416-.885.624-1.968.624-3.248 0-1.11-.208-2.075-.624-2.896-.416-.82-.976-1.5-1.68-2.032-.704-.533-1.53-.933-2.48-1.2-.95-.267-1.947-.4-2.992-.4h-2.944v13.44zm16.612-3.168c0-1.237.224-2.357.672-3.36.448-1.003 1.06-1.86 1.84-2.576.78-.715 1.696-1.264 2.752-1.648 1.056-.384 2.18-.576 3.376-.576 1.195 0 2.32.192 3.376.576 1.056.384 1.973.933 2.752 1.648.78.715 1.392 1.573 1.84 2.576.448 1.003.672 2.123.672 3.36 0 1.237-.224 2.357-.672 3.36-.448 1.003-1.06 1.86-1.84 2.576-.78.715-1.696 1.264-2.752 1.648-1.056.384-2.18.576-3.376.576-1.195 0-2.32-.192-3.376-.576-1.056-.384-1.973-.933-2.752-1.648-.78-.715-1.392-1.573-1.84-2.576-.448-1.003-.672-2.123-.672-3.36zm4.8 0c0 1.173.336 2.123 1.008 2.848.672.725 1.616 1.088 2.832 1.088 1.216 0 2.16-.363 2.832-1.088.672-.725 1.008-1.675 1.008-2.848 0-1.173-.336-2.123-1.008-2.848-.672-.725-1.616-1.088-2.832-1.088-1.216 0-2.16.363-2.832 1.088-.672.725-1.008 1.675-1.008 2.848zm13.796-7.776h4.608v2.112h.064c.15-.3.363-.597.64-.896.277-.3.608-.565.992-.8.384-.235.82-.427 1.312-.576.49-.15 1.024-.224 1.6-.224 1.216 0 2.197.187 2.944.56.747.373 1.328.89 1.744 1.552.416.66.7 1.44.848 2.336.15.896.224 1.867.224 2.912V136h-4.8v-7.616c0-.448-.016-.912-.048-1.392-.032-.48-.128-.923-.288-1.328-.16-.405-.405-.736-.736-.992-.33-.256-.805-.384-1.424-.384-.62 0-1.12.112-1.504.336-.384.224-.677.523-.88.896-.203.373-.336.795-.4 1.264-.064.47-.096.96-.096 1.472V136h-4.8v-15.552zm16.292 7.776c0-1.237.224-2.357.672-3.36.448-1.003 1.06-1.86 1.84-2.576.78-.715 1.696-1.264 2.752-1.648 1.056-.384 2.18-.576 3.376-.576 1.195 0 2.32.192 3.376.576 1.056.384 1.973.933 2.752 1.648.78.715 1.392 1.573 1.84 2.576.448 1.003.672 2.123.672 3.36 0 1.237-.224 2.357-.672 3.36-.448 1.003-1.06 1.86-1.84 2.576-.78.715-1.696 1.264-2.752 1.648-1.056.384-2.18.576-3.376.576-1.195 0-2.32-.192-3.376-.576-1.056-.384-1.973-.933-2.752-1.648-.78-.715-1.392-1.573-1.84-2.576-.448-1.003-.672-2.123-.672-3.36zm4.8 0c0 1.173.336 2.123 1.008 2.848.672.725 1.616 1.088 2.832 1.088 1.216 0 2.16-.363 2.832-1.088.672-.725 1.008-1.675 1.008-2.848 0-1.173-.336-2.123-1.008-2.848-.672-.725-1.616-1.088-2.832-1.088-1.216 0-2.16.363-2.832 1.088-.672.725-1.008 1.675-1.008 2.848zm13.796-7.776h4.8v2.496h.064c.512-.96 1.12-1.68 1.824-2.16.704-.48 1.59-.72 2.656-.72.277 0 .555.01.832.032.277.02.533.064.768.128v4.384c-.34-.107-.677-.187-1.008-.24-.33-.053-.677-.08-1.04-.08-.917 0-1.643.128-2.176.384-.533.256-.944.613-1.232 1.072-.288.46-.475 1.008-.56 1.648-.085.64-.128 1.344-.128 2.112V136h-4.8v-15.552z" fill="#FFF"/></g></svg>
